<svg version="1.2" xmlns="http://www.w3.org/2000/svg" viewBox="0 0 400 400" width="400" height="400"><style>.a{fill:#ff0}</style><path class="a" d="m236.5 9.6l38.3 3.1 12.4 9.3 2.1 22.8-15.6 22.7-40.3-16.5-36.2-2.1-58 11.4-25.8 14.5-26.9-28 3.1-14.5 23.8-11.3zm-20.7 70.3l15.5 7.3 13.4 18.6-23.8 53.8 47.6 48.6-5.1 39.3-11.4 4.2-17.6-6.2-45.5-46.6-51.8 44.5-46.5 25.9-2.1 49.6 87.9-11.3h140.8l15.5 6.2 12.4 16.5-3.1 31.1-30 8.2-56.9-15.5h-86.9l-67.3 14.5-30 23.8-21.7-20.7-10.4-32.1 14.5-17.6 5.2-25.8 4.1-208 8.3-3.1 13.4 18.6-1 94.2 10.4 49.6 71.4-71.4-35.2-28.9v-17.6l21.7-2.1 35.2 10.4z"/></svg>